<?xml version="1.0" encoding="utf-8"?>
<!-- Generator: Adobe Illustrator 25.0.0, SVG Export Plug-In . SVG Version: 6.00 Build 0)  -->
<svg version="1.1" id="Calque_1" xmlns="http://www.w3.org/2000/svg" xmlns:xlink="http://www.w3.org/1999/xlink" x="0px" y="0px"
	 viewBox="0 0 595.28 841.89" style="enable-background:new 0 0 595.28 841.89;" xml:space="preserve">
<style type="text/css">
	.st0{opacity:0.5;}
	.st1{clip-path:url(#SVGID_4_);fill:url(#SVGID_5_);}
	.st2{fill:none;stroke:#FFFFFF;stroke-width:2;stroke-miterlimit:10;}
	.st3{clip-path:url(#SVGID_7_);fill:url(#SVGID_8_);}
</style>
<g class="st0">
	<g>
		<defs>
			<rect id="SVGID_1_" x="233.52" y="356.49" width="128.8" height="128.8"/>
		</defs>
		<clipPath id="SVGID_2_">
			<use xlink:href="#SVGID_1_"  style="overflow:visible;"/>
		</clipPath>
	</g>
</g>
<g>
	<defs>
		<path id="SVGID_3_" d="M319.4,401.81c0.18,0.19,0.36,0.38,0.54,0.57C319.76,402.18,319.58,401.99,319.4,401.81 M317.84,400.32
			c0.01,0.01,0.02,0.02,0.03,0.03C317.86,400.34,317.85,400.33,317.84,400.32 M295.61,374.02l-38.86,22.43
			c-1.27,0.73-2.31,2.53-2.31,3.99v44.87c0,1.47,1.04,3.27,2.31,4l38.86,22.44c1.27,0.73,3.34,0.73,4.61,0l38.86-22.44
			c1.27-0.73,2.31-2.53,2.31-4v-44.87c0-1.46-1.04-3.26-2.31-3.99l-38.86-22.43c-0.64-0.37-1.47-0.55-2.31-0.55
			C297.08,373.47,296.24,373.66,295.61,374.02"/>
	</defs>
	<clipPath id="SVGID_4_">
		<use xlink:href="#SVGID_3_"  style="overflow:visible;"/>
	</clipPath>
	
		<linearGradient id="SVGID_5_" gradientUnits="userSpaceOnUse" x1="-657.3981" y1="964.4093" x2="-656.3981" y2="964.4093" gradientTransform="matrix(86.944 0 0 -86.944 57411.2656 84272.5859)">
		<stop  offset="0" style="stop-color:#FFFFFF"/>
		<stop  offset="1" style="stop-color:#525355"/>
	</linearGradient>
	<rect x="254.45" y="373.47" class="st1" width="86.94" height="99.01"/>
</g>
<path class="st2" d="M339.08,396.46l-38.86-22.43c-1.27-0.73-3.35-0.73-4.61,0l-38.86,22.43c-1.27,0.73-2.31,2.53-2.31,3.99v44.87
	c0,1.47,1.04,3.26,2.31,3.99l38.86,22.44c1.27,0.73,3.34,0.73,4.61,0l38.86-22.44c1.27-0.73,2.31-2.53,2.31-3.99v-44.87
	C341.39,398.99,340.35,397.19,339.08,396.46z M319.4,401.81c0.18,0.19,0.36,0.38,0.54,0.57
	C319.76,402.18,319.58,401.99,319.4,401.81z M317.84,400.32c0.06,0.05,0.11,0.1,0.17,0.15
	C317.95,400.41,317.89,400.37,317.84,400.32z"/>
<path d="M329.95,422.89c0,17.69-14.34,32.03-32.03,32.03c-17.69,0-32.03-14.34-32.03-32.03c0-17.69,14.34-32.03,32.03-32.03
	C315.61,390.86,329.95,405.2,329.95,422.89"/>
<g>
	<defs>
		<path id="SVGID_6_" d="M305.38,423.06h2.05v-4.26h-2.05V423.06z M318.73,427.11h2.3v-8.32h-2.3V427.11z M269.02,431.38h57.79
			c-3.67,12.5-15.21,21.63-28.89,21.63C284.23,453,272.69,443.88,269.02,431.38 M277.08,421.97v-4.61h1.69v11.2h-1.69v-5.02h-2.27
			v5.02h-1.68v-11.2h1.68v4.61H277.08z M280.1,417.36h4.6v1.48h-2.92v3.27h2.52v1.45h-2.52v3.51h2.97v1.48h-4.64V417.36z
			 M289.31,423.54l1.76-6.19h1.58v11.2h-1.61v-5.52c0-0.29,0.03-0.69,0.1-1.21l-1.44,5.71h-0.85l-1.45-5.71
			c0.07,0.53,0.1,0.93,0.1,1.21v5.52h-1.61v-11.2h1.58l1.76,6.19c0.02,0.07,0.04,0.24,0.04,0.51
			C289.27,423.93,289.28,423.76,289.31,423.54 M297.68,427.14v-2.2l-3.35-3.18c-0.24-0.23-0.37-0.53-0.37-0.89v-2.49
			c0-0.69,0.34-1.03,1.01-1.03h3.37c0.68,0,1.02,0.34,1.02,1.02v2.5h-1.67v-2.11h-2.05v2.03l3.36,3.16
			c0.24,0.23,0.37,0.53,0.37,0.91v2.67c0,0.68-0.34,1.02-1.02,1.02h-3.37c-0.67,0-1.01-0.34-1.01-1.02v-2.67h1.67v2.28H297.68z
			 M303.71,417.36h4.39c0.68,0,1.02,0.34,1.02,1.03v5.07c0,0.7-0.34,1.05-1.02,1.05h-2.71v4.06h-1.67V417.36z M310.3,417.36h4.44
			c0.67,0,1.01,0.34,1.01,1.03v4.07c0,0.47-0.16,0.78-0.48,0.92c-0.17,0.07-0.54,0.11-1.09,0.11l1.84,5.07h-1.74l-1.84-5.2v-1.01
			h1.64v-3.55h-2.11v9.76h-1.67V417.36z M317.05,427.53v-9.14c0-0.69,0.33-1.03,1-1.03h3.63c0.68,0,1.02,0.34,1.02,1.03v9.14
			c0,0.68-0.34,1.02-1.02,1.02h-3.63C317.39,428.55,317.05,428.21,317.05,427.53 M297.92,392.77c13.68,0,25.23,9.13,28.9,21.63
			h-57.79C272.69,401.9,284.23,392.77,297.92,392.77 M295.61,374.02l-38.86,22.43c-1.27,0.73-2.31,2.53-2.31,3.99v44.87
			c0,1.47,1.04,3.27,2.31,4l38.86,22.44c1.27,0.73,3.34,0.73,4.61,0l38.86-22.44c1.27-0.73,2.31-2.53,2.31-4v-44.87
			c0-1.46-1.04-3.26-2.31-3.99l-38.86-22.43c-0.64-0.37-1.47-0.55-2.31-0.55C297.08,373.47,296.24,373.66,295.61,374.02"/>
	</defs>
	<clipPath id="SVGID_7_">
		<use xlink:href="#SVGID_6_"  style="overflow:visible;"/>
	</clipPath>
	
		<radialGradient id="SVGID_8_" cx="-656.8981" cy="964.4093" r="0.5358" gradientTransform="matrix(86.944 0 0 -86.944 57411.2656 84272.5859)" gradientUnits="userSpaceOnUse">
		<stop  offset="0" style="stop-color:#FFFFFF"/>
		<stop  offset="1" style="stop-color:#525355"/>
	</radialGradient>
	<rect x="254.45" y="373.47" class="st3" width="86.94" height="99.01"/>
</g>
</svg>
